<svg xmlns="http://www.w3.org/2000/svg" viewBox="0 0 48 48" role="img" aria-label="DeskMate icon">
  <path
    d="M24 4c9.3 0 17 2.4 17 9.9v8.8c0 10.2-7.1 17.6-17 21.3C14.1 40.3 7 32.9 7 22.7v-8.8C7 6.4 14.7 4 24 4Z"
    fill="#10b981"
  />
  <path d="M15.8 23a8.2 8.2 0 0 1 16.4 0" fill="none" stroke="#fff" stroke-width="3.2" stroke-linecap="round"/>
  <rect x="13.6" y="22.6" width="4.8" height="8.8" rx="2.2" fill="#fff"/>
  <rect x="29.6" y="22.6" width="4.8" height="8.8" rx="2.2" fill="#fff"/>
  <path d="M32 30.8c0 3-2.4 5.4-5.4 5.4h-2.4" fill="none" stroke="#fff" stroke-width="2.4" stroke-linecap="round"/>
  <rect x="22" y="35.2" width="5.6" height="2.8" rx="1.4" fill="#fff"/>
  <circle cx="24" cy="18.2" r="1.7" fill="#fff"/>
</svg>
